<?xml version="1.0" encoding="UTF-8" standalone="no"?>
<svg
   version="1.1"
   width="260.69687"
   height="62.675701"
   id="svg53"
   viewBox="0 0 260.69687 62.675701"
   sodipodi:docname="d4940b5386a11df0c822831aeed27937.cdr"
   xmlns:inkscape="http://www.inkscape.org/namespaces/inkscape"
   xmlns:sodipodi="http://sodipodi.sourceforge.net/DTD/sodipodi-0.dtd"
   xmlns="http://www.w3.org/2000/svg"
   xmlns:svg="http://www.w3.org/2000/svg">
  <defs
     id="defs57" />
  <sodipodi:namedview
     id="namedview55"
     pagecolor="#ffffff"
     bordercolor="#666666"
     borderopacity="1.0"
     inkscape:pageshadow="2"
     inkscape:pageopacity="0.0"
     inkscape:pagecheckerboard="0" />
  <g
     id="Layer1000"
     transform="translate(-176.79335,-306.9364)">
    <g
       id="Layer1001">
      <path
         d="m 322.5371,325.5255 c 9.8085,0 17.7598,7.9513 17.7598,17.7599 0,9.8085 -7.9513,17.7598 -17.7598,17.7598 -9.8085,0 -17.7598,-7.9513 -17.7598,-17.7598 0,-9.8086 7.9513,-17.7599 17.7598,-17.7599 z m 0,4.3418 c 7.4105,0 13.418,6.0076 13.418,13.4181 0,7.4105 -6.0075,13.418 -13.418,13.418 -7.4105,0 -13.418,-6.0075 -13.418,-13.418 0,-7.4105 6.0075,-13.4181 13.418,-13.4181 z"
         style="fill:#102a83;fill-rule:evenodd"
         id="path2" />
      <text
         x="215.0209"
         y="361.57721"
         id="text6"><tspan
           font-family="Calibri"
           font-size="58.5px"
           fill="#102a83"
           id="tspan4">E</tspan></text>
      <text
         x="240.7309"
         y="362.0452"
         id="text10"><tspan
           font-family="Calibri"
           font-size="58.5px"
           fill="#102a83"
           id="tspan8">C</tspan></text>
      <text
         x="274.08469"
         y="361.75269"
         id="text14"><tspan
           font-family="Calibri"
           font-size="58.5px"
           fill="#102a83"
           id="tspan12">H</tspan></text>
      <text
         x="343.24921"
         y="361.75269"
         id="text18"><tspan
           font-family="Calibri"
           font-size="58.5px"
           fill="#102a83"
           id="tspan16">T</tspan></text>
      <text
         x="376.2037"
         y="361.75269"
         id="text22"><tspan
           font-family="Calibri"
           font-size="58.5px"
           fill="#102a83"
           id="tspan20">I</tspan></text>
      <text
         x="390.9455"
         y="361.57721"
         id="text26"><tspan
           font-family="Calibri"
           font-size="58.5px"
           fill="#102a83"
           id="tspan24">L</tspan></text>
      <text
         x="412.66769"
         y="362.10361"
         id="text30"><tspan
           font-family="Calibri"
           font-size="58.5px"
           fill="#102a83"
           id="tspan28">S</tspan></text>
    </g>
    <g
       id="Layer1002">
      <path
         d="m 179.4433,320.1427 c 0.6691,0.3883 14.6232,3.0284 16.3315,3.1602 -0.4334,-1.0173 0.0811,-0.034 -0.3293,-0.5721 l -7.0732,-6.2055 c -0.756,-0.7302 -1.0752,-1.1031 -2.3273,-0.4285 -1.7127,0.9225 -5.5904,2.867 -6.6017,4.0459 z"
         style="fill:#f7f7f7;fill-rule:evenodd"
         id="path33" />
      <path
         d="m 196.6716,338.966 c -0.0102,1.5432 1.9398,5.7457 2.5509,7.5227 l 2.5584,7.3194 -1.4353,-8.652 c -0.1689,-0.8172 -0.4065,-1.055 -0.506,-1.511 -0.1999,-0.9159 -0.2074,-2.5955 -0.4358,-3.686 -0.5283,-2.5227 -1.8391,-12.2998 -2.6493,-13.5152 z"
         style="fill:#f7f7f7;fill-rule:evenodd"
         id="path35" />
      <path
         d="m 203.2758,358.3148 -0.1709,-21.0419 c -0.567,0.5934 -1.8999,4.0941 -2.0785,4.6499 -0.3828,1.1916 0.1321,0.146 -0.2652,2.3771 -0.155,0.8704 2.1546,13.0003 2.5146,14.0149 z"
         style="fill:#f7f7f7;fill-rule:evenodd"
         id="path37" />
      <path
         d="m 177.6351,318.2805 c 9.3955,-6.064 18.8044,-8.4726 28.2262,-6.7981 16.132,2.283 23.8086,2.2956 34.0202,-4.546 v 2.8973 c -11.8888,7.7452 -24.4135,4.9138 -31.6369,4.4086 -2.1293,17.0054 -2.1511,34.0094 -0.9223,51.0147 l -3.6274,4.3551 c -0.1093,-1.7864 -0.2088,-3.5688 -0.2976,-5.3463 -7.5665,-28.5676 -16.088,-42.4844 -26.3688,-43.5082 -0.2367,0.1663 -0.2596,0.2559 -0.2189,-0.0546 0.0955,-0.7273 0.3246,-2.0995 0.8255,-2.4225 z m 25.5234,40.5201 c -0.5819,-15.6128 -0.254,-30.8228 1.6484,-45.3365 -8.9864,-1.5806 -17.5566,1.0268 -25.9301,6.4225 12.1164,4.3282 16.5462,16.7856 24.2817,38.914 z"
         style="fill:#00892e;fill-rule:evenodd"
         id="path39" />
      <path
         d="m 186.9706,314.8968 7.9862,5.5867"
         style="fill:none;stroke:#00892e;stroke-width:1.0001;stroke-linecap:butt;stroke-linejoin:miter;stroke-dasharray:none"
         id="path41" />
      <path
         d="m 194.7284,320.3439 10.8812,-7.3418"
         style="fill:none;stroke:#00892e;stroke-width:1.0001;stroke-linecap:butt;stroke-linejoin:miter;stroke-dasharray:none"
         id="path43" />
      <path
         d="m 178.4838,319.6526 c 5.8361,-1.0109 11.398,-0.7755 16.7202,0.9106"
         style="fill:none;stroke:#00892e;stroke-width:1.0001;stroke-linecap:butt;stroke-linejoin:miter;stroke-dasharray:none"
         id="path45" />
      <path
         d="m 194.651,320.7509 -5.165,8.0422"
         style="fill:none;stroke:#00892e;stroke-width:1.0001;stroke-linecap:butt;stroke-linejoin:miter;stroke-dasharray:none"
         id="path47" />
      <path
         d="m 194.6405,320.4749 8.5384,38.2014"
         style="fill:none;stroke:#00892e;stroke-width:1.0001;stroke-linecap:butt;stroke-linejoin:miter;stroke-dasharray:none"
         id="path49" />
    </g>
  </g>
</svg>
